<svg id="SvgjsSvg1403" width="100%" height="100%" xmlns="http://www.w3.org/2000/svg" version="1.1" xlink="http://www.w3.org/1999/xlink" xmlns:svgjs="http://svgjs.com/svgjs" preserveAspectRatio="xMidYMid meet" viewBox="0 0 175.65496826171875 147" overflow="visible"><defs id="SvgjsDefs1404"></defs><g id="SvgjsG1405" transform="scale(2.387914230019493)" opacity="1"><g id="SvgjsG1406" class="QlXXkRxQu" transform="translate(0, 0) scale(1)" light-content="false" fill="#ad971a"><path d="M0 0 h 73.56 v 2 h -73.56 Z M0 0 h 2 v 61.56 h -2 Z M73.56 61.56 h -73.56 v -2 h 73.56 Z M73.56 61.56 h -2 v -61.56 h 2 Z" fill-rule="nonzero"></path></g><g id="SvgjsG1407" class="text" transform="translate(16.47000026702881, 49.0799984741211) scale(1)" light-content="false" fill="#ad971a"><path d="M-1.41 -26.58L-1.41 0L7.59 0L7.59 -32.04C7.59 -32.52 7.15 -33.12 6.27 -33.84C5.39 -34.56 4.36 -35.2 3.18 -35.76C2 -36.32 0.97 -36.6 0.09 -36.6L-10.47 -30.36L-7.95 -24.96L-1.95 -26.94Z"></path></g><g id="SvgjsG1408" class="text" transform="translate(52.56, 48.959999084472656) scale(1)" light-content="false" fill="#ad971a"><path d="M-3.6 0.3L-3.6 6.6L4.86 6.6L4.86 0.06C8.34 -0.5 10.9 -1.7 12.54 -3.54C14.18 -5.38 15 -7.74 15 -10.62C15 -13.18 14.54 -15.25 13.62 -16.83C12.7 -18.41 11.37 -19.62 9.63 -20.46C7.89 -21.3 5.62 -22.02 2.82 -22.62C0.26 -23.18 -1.54 -23.75 -2.58 -24.33C-3.62 -24.91 -4.14 -25.78 -4.14 -26.94C-4.14 -28.1 -3.71 -28.9 -2.85 -29.34C-1.99 -29.78 -0.72 -30 0.96 -30C2.28 -30 3.54 -29.9 4.74 -29.7L5.28 -25.32L12.72 -25.32C12.96 -26.04 13.19 -27.24 13.41 -28.92C13.63 -30.6 13.74 -31.92 13.74 -32.88L13.74 -34.98C10.78 -36.42 7.82 -37.3 4.86 -37.62L4.86 -42.96L-3.6 -42.96L-3.6 -37.32C-6.76 -36.68 -9.14 -35.45 -10.74 -33.63C-12.34 -31.81 -13.14 -29.48 -13.14 -26.64C-13.14 -23.96 -12.6 -21.82 -11.52 -20.22C-10.44 -18.62 -8.95 -17.38 -7.05 -16.5C-5.15 -15.62 -2.64 -14.8 0.48 -14.04C2.64 -13.52 4.1 -13.01 4.86 -12.51C5.62 -12.01 6 -11.24 6 -10.2C6 -9.24 5.84 -8.42 5.52 -7.74C4.12 -7.46 2.32 -7.32 0.12 -7.32C-4.28 -7.32 -8.34 -8.3 -12.06 -10.26L-15 -3C-11.68 -1.12 -7.88 -0.02 -3.6 0.3Z"></path></g></g></svg>