<svg height="512pt" viewBox="0 0 512 512" width="512pt" xmlns="http://www.w3.org/2000/svg"><path d="m453.332031 512h-224c-32.363281 0-58.664062-26.304688-58.664062-58.667969v-96c0-8.832031 7.167969-16 16-16s16 7.167969 16 16v96c0 14.699219 11.964843 26.667969 26.664062 26.667969h224c14.699219 0 26.667969-11.96875 26.667969-26.667969v-394.664062c0-14.699219-11.96875-26.667969-26.667969-26.667969h-224c-14.699219 0-26.664062 11.96875-26.664062 26.667969v96c0 8.832031-7.167969 16-16 16s-16-7.167969-16-16v-96c0-32.363281 26.300781-58.667969 58.664062-58.667969h224c32.363281 0 58.667969 26.304688 58.667969 58.667969v394.664062c0 32.363281-26.304688 58.667969-58.667969 58.667969zm0 0"/><path d="m325.332031 272h-309.332031c-8.832031 0-16-7.167969-16-16s7.167969-16 16-16h309.332031c8.832031 0 16 7.167969 16 16s-7.167969 16-16 16zm0 0"/><path d="m240 357.332031c-4.097656 0-8.191406-1.554687-11.308594-4.691406-6.25-6.25-6.25-16.382813 0-22.636719l74.027344-74.023437-74.027344-74.027344c-6.25-6.25-6.25-16.386719 0-22.636719 6.253906-6.25 16.386719-6.25 22.636719 0l85.332031 85.335938c6.25 6.25 6.25 16.382812 0 22.632812l-85.332031 85.332032c-3.136719 3.160156-7.230469 4.714843-11.328125 4.714843zm0 0"/></svg>